<svg width="170" height="21" viewBox="0 0 170 21" fill="none" xmlns="http://www.w3.org/2000/svg">
<g clip-path="url(#clip0_0_1192)">
<path d="M12.9358 12.7036L15.9782 18.0546H9.83256L6.75806 12.7036H12.9358Z" fill="url(#paint0_linear_0_1192)"/>
<path d="M15.9765 18.0555L19.0459 12.7045L12.902 1.99976H6.75806L15.9765 18.0555Z" fill="white"/>
<path d="M3.68621 7.34943H9.83017L3.68877 18.0541L0.614258 12.7031L3.68621 7.34943Z" fill="white"/>
</g>
<path d="M31.4217 7.3541L31.2689 9.00611C30.6138 7.72363 29.107 7.02804 27.491 7.02804C24.4557 7.02804 22.4248 9.22348 22.4248 12.5927C22.4248 15.9402 24.2591 18.3748 27.4692 18.3748C29.2162 18.3748 30.5046 17.527 31.1815 16.4184L31.3562 18.0922H33.8457V7.3541H31.4217ZM31.1378 12.7231C31.1378 14.6577 29.9368 15.9837 28.0806 15.9837C26.2245 15.9837 25.0889 14.636 25.0889 12.7231C25.0889 10.8103 26.2463 9.44085 28.1025 9.44085C29.9586 9.44085 31.1378 10.7885 31.1378 12.7231Z" fill="white"/>
<path d="M38.3786 18.0922V15.2011L39.9508 13.5709L42.7678 18.0922H45.825L41.807 11.6145L45.9124 7.3541H42.5713L38.3786 11.8537V2.23608H35.7363V18.0922H38.3786Z" fill="white"/>
<path d="M54.7718 7.3541L54.6189 9.00611C53.9638 7.72363 52.457 7.02804 50.8411 7.02804C47.8057 7.02804 45.7748 9.22348 45.7748 12.5927C45.7748 15.9402 47.6092 18.3748 50.8192 18.3748C52.5662 18.3748 53.8546 17.527 54.5315 16.4184L54.7062 18.0922H57.1957V7.3541H54.7718ZM54.4879 12.7231C54.4879 14.6577 53.2868 15.9837 51.4307 15.9837C49.5745 15.9837 48.439 14.636 48.439 12.7231C48.439 10.8103 49.5963 9.44085 51.4525 9.44085C53.3087 9.44085 54.4879 10.7885 54.4879 12.7231Z" fill="white"/>
<path d="M58.5438 14.8316C58.5438 16.9401 60.2471 18.3748 62.9331 18.3748C65.5972 18.3748 67.4534 17.0271 67.4534 14.8534C67.4534 13.2013 66.5362 12.3753 64.7237 11.9623L62.7802 11.5059C61.8631 11.2885 61.3827 10.8972 61.3827 10.2886C61.3827 9.48432 61.9941 9.00611 63.0423 9.00611C64.0686 9.00611 64.6801 9.59301 64.7019 10.506H67.235C67.2132 8.41921 65.5754 7.02804 63.1515 7.02804C60.662 7.02804 58.8714 8.28879 58.8714 10.3973C58.8714 12.1145 59.8104 13.0275 61.7539 13.4622L63.6974 13.9187C64.6582 14.136 64.9421 14.5273 64.9421 15.0707C64.9421 15.8533 64.2652 16.3532 63.0204 16.3532C61.7976 16.3532 61.0988 15.7663 61.0769 14.8316H58.5438Z" fill="white"/>
<path d="M71.6017 18.0922V12.2232C71.6017 10.6146 72.5844 9.44085 74.2659 9.44085C75.6198 9.44085 76.5151 10.3103 76.5151 12.1145V18.0922H79.1792V11.4841C79.1792 8.70179 77.7817 7.02804 75.1175 7.02804C73.5671 7.02804 72.3005 7.70189 71.6236 8.74526V2.23608H68.9376V18.0922H71.6017Z" fill="white"/>
<path d="M83.4903 18.3252C84.4405 18.3252 85.2395 17.5478 85.2395 16.6192C85.2395 15.6691 84.4405 14.8917 83.4903 14.8917C82.5402 14.8917 81.7412 15.6691 81.7412 16.6192C81.7412 17.5478 82.5402 18.3252 83.4903 18.3252Z" fill="white"/>
<path d="M90.5725 18.0661V12.322C90.5725 10.5945 91.5659 9.47158 93.1854 9.47158C94.5459 9.47158 95.4312 10.3353 95.4312 12.1277V18.0661H98.0657V11.5014C98.0657 8.73738 96.6837 7.07463 94.006 7.07463C92.5592 7.07463 91.2636 7.70086 90.5941 8.78057L90.3782 7.39854H87.9381V18.0661H90.5725Z" fill="white"/>
<path d="M104.812 18.3468C107.598 18.3468 109.541 16.9432 109.995 14.611H107.555C107.252 15.6259 106.302 16.1874 104.855 16.1874C103.106 16.1874 102.113 15.2372 101.918 13.3585L109.951 13.3369V12.538C109.951 9.21245 107.922 7.07463 104.726 7.07463C101.595 7.07463 99.4135 9.38521 99.4135 12.7323C99.4135 16.0362 101.638 18.3468 104.812 18.3468ZM104.747 9.23405C106.324 9.23405 107.339 10.2058 107.339 11.6742H101.983C102.242 10.0762 103.193 9.23405 104.747 9.23405Z" fill="white"/>
<path d="M114.968 18.0661V9.60115H117.041V7.39854H114.968V4.07304H112.333V7.39854H110.282V9.60115H112.333V18.0661H114.968Z" fill="white"/>
<path d="M121.033 18.0661H123.602L125.071 13.4881C125.61 11.739 125.805 10.9832 125.913 10.4865C125.999 11.0264 126.237 12.0413 126.669 13.4449L128.137 18.0661H130.599L134.291 7.39854H131.506L130.08 11.9765C129.886 12.6459 129.541 13.92 129.368 14.719C129.238 14.0064 128.806 12.4084 128.677 11.9765L127.252 7.39854H124.574L123.106 11.9765C122.76 13.0346 122.566 13.704 122.371 14.7406C122.177 13.7472 121.961 12.8187 121.724 11.9765L120.32 7.39854H117.577L121.033 18.0661Z" fill="white"/>
<path d="M134.119 12.7107C134.119 16.0362 136.516 18.3252 139.82 18.3252C143.124 18.3252 145.521 16.0362 145.521 12.7107C145.521 9.38521 143.124 7.09622 139.82 7.09622C136.516 7.09622 134.119 9.38521 134.119 12.7107ZM136.753 12.7107C136.753 10.7672 138.006 9.44999 139.82 9.44999C141.634 9.44999 142.886 10.7672 142.886 12.7107C142.886 14.6542 141.634 15.9714 139.82 15.9714C138.006 15.9714 136.753 14.6542 136.753 12.7107Z" fill="white"/>
<path d="M153.074 7.35535C152.642 7.24738 152.275 7.20419 151.908 7.20419C150.483 7.20419 149.468 7.9168 149.014 8.97492L148.863 7.42014H146.38V18.0661H149.014V12.8835C149.014 10.8104 150.202 9.79549 152.102 9.79549H153.074V7.35535Z" fill="white"/>
<path d="M156.899 18.0661V15.194L158.454 13.5745L161.239 18.0661H164.263L160.289 11.631L164.349 7.39854H161.045L156.899 11.8685V2H154.286V18.0661H156.899Z" fill="white"/>
<defs>
<linearGradient id="paint0_linear_0_1192" x1="11.4998" y1="15.0004" x2="14.0036" y2="12.5043" gradientUnits="userSpaceOnUse">
<stop stop-color="white"/>
<stop offset="1" stop-color="white" stop-opacity="0.127613"/>
</linearGradient>
<clipPath id="clip0_0_1192">
<rect y="0.77124" width="19.6605" height="19.6605" rx="4.91513" fill="white"/>
</clipPath>
</defs>
</svg>
