<svg width="480" height="364" viewBox="0 0 480 364" fill="none" xmlns="http://www.w3.org/2000/svg">
<rect x="301.721" y="208.317" width="118.198" height="118.674" rx="9.88952" fill="#E4E4E4" stroke="black" stroke-width="1.3186"/>
<rect x="292.967" y="200.845" width="120.103" height="120.103" rx="9.88952" fill="white" stroke="black" stroke-width="1.3186"/>
<path d="M389.063 231.776L394.287 240.976H383.735L378.456 231.776H389.063Z" fill="url(#paint0_linear_0_1187)"/>
<path d="M394.284 240.978L399.554 231.777L389.005 213.372H378.456L394.284 240.978Z" fill="#FF414C"/>
<path d="M373.182 222.57H383.731L373.186 240.976L367.908 231.775L373.182 222.57Z" fill="#FF414C"/>
<rect x="136.05" y="76.7317" width="219.328" height="220.207" rx="9.88952" fill="#E4E4E4" stroke="black" stroke-width="1.3186"/>
<rect x="124.622" y="67.0619" width="222.844" height="222.844" rx="9.88952" fill="white" stroke="black" stroke-width="1.3186"/>
<rect x="144.182" y="110.796" width="191.637" height="12.307" rx="3.51627" fill="#E4E4E4"/>
<rect x="261.977" y="84.4235" width="73.8417" height="12.307" rx="3.51627" fill="#E4E4E4"/>
<rect x="144.182" y="128.377" width="191.637" height="12.307" rx="3.51627" fill="#E4E4E4"/>
<rect x="144.182" y="145.958" width="191.637" height="12.307" rx="3.51627" fill="#E4E4E4"/>
<rect x="144.182" y="165.298" width="106.367" height="12.307" rx="3.51627" fill="#E4E4E4"/>
<rect x="144.182" y="182.879" width="106.367" height="12.307" rx="3.51627" fill="#E4E4E4"/>
<rect x="144.182" y="200.46" width="106.367" height="12.307" rx="3.51627" fill="#E4E4E4"/>
<rect x="144.182" y="261.995" width="106.367" height="12.307" rx="3.51627" fill="#E4E4E4"/>
<rect x="256.702" y="261.995" width="20.2186" height="12.307" rx="3.51627" fill="#E4E4E4"/>
<rect x="81.9541" y="51.8428" width="118.198" height="118.674" rx="9.88952" fill="#E4E4E4" stroke="black" stroke-width="1.3186"/>
<rect x="73.2001" y="44.3707" width="120.103" height="120.103" rx="9.88952" fill="white" stroke="black" stroke-width="1.3186"/>
<path d="M136.414 77.9951H135.253C133.855 77.9951 132.513 78.5508 131.524 79.54C130.535 80.5291 129.979 81.8707 129.979 83.2695V83.7442C129.978 84.6692 129.734 85.5776 129.271 86.3784C128.808 87.1791 128.143 87.8441 127.342 88.3066L126.208 88.9659C125.406 89.4288 124.496 89.6725 123.571 89.6725C122.645 89.6725 121.735 89.4288 120.933 88.9659L120.538 88.7549C119.327 88.0567 117.89 87.8673 116.54 88.2283C115.19 88.5892 114.039 89.471 113.338 90.6801L112.758 91.6822C112.06 92.8925 111.87 94.3304 112.231 95.6802C112.592 97.03 113.474 98.1815 114.683 98.8818L115.079 99.1455C115.876 99.6057 116.539 100.267 117.001 101.062C117.464 101.858 117.71 102.761 117.716 103.681V105.026C117.72 105.956 117.478 106.87 117.015 107.676C116.551 108.481 115.884 109.151 115.079 109.615L114.683 109.853C113.474 110.553 112.592 111.704 112.231 113.054C111.87 114.404 112.06 115.842 112.758 117.052L113.338 118.054C114.039 119.263 115.19 120.145 116.54 120.506C117.89 120.867 119.327 120.678 120.538 119.979L120.933 119.768C121.735 119.306 122.645 119.062 123.571 119.062C124.496 119.062 125.406 119.306 126.208 119.768L127.342 120.428C128.143 120.89 128.808 121.555 129.271 122.356C129.734 123.157 129.978 124.065 129.979 124.99V125.465C129.979 126.864 130.535 128.205 131.524 129.194C132.513 130.184 133.855 130.739 135.253 130.739H136.414C137.813 130.739 139.154 130.184 140.143 129.194C141.132 128.205 141.688 126.864 141.688 125.465V124.99C141.689 124.065 141.933 123.157 142.396 122.356C142.859 121.555 143.524 120.89 144.325 120.428L145.459 119.768C146.261 119.306 147.171 119.062 148.097 119.062C149.022 119.062 149.932 119.306 150.734 119.768L151.129 119.979C152.34 120.678 153.778 120.867 155.127 120.506C156.477 120.145 157.629 119.263 158.329 118.054L158.909 117.026C159.607 115.815 159.797 114.378 159.436 113.028C159.075 111.678 158.193 110.526 156.984 109.826L156.588 109.615C155.783 109.151 155.116 108.481 154.653 107.676C154.189 106.87 153.947 105.956 153.951 105.026V103.708C153.947 102.778 154.189 101.865 154.653 101.059C155.116 100.253 155.783 99.5838 156.588 99.1191L156.984 98.8818C158.193 98.1815 159.075 97.03 159.436 95.6802C159.797 94.3304 159.607 92.8925 158.909 91.6822L158.329 90.6801C157.629 89.471 156.477 88.5892 155.127 88.2283C153.778 87.8673 152.34 88.0567 151.129 88.7549L150.734 88.9659C149.932 89.4288 149.022 89.6725 148.097 89.6725C147.171 89.6725 146.261 89.4288 145.459 88.9659L144.325 88.3066C143.524 87.8441 142.859 87.1791 142.396 86.3784C141.933 85.5776 141.689 84.6692 141.688 83.7442V83.2695C141.688 81.8707 141.132 80.5291 140.143 79.54C139.154 78.5508 137.813 77.9951 136.414 77.9951Z" stroke="#09090B" stroke-width="1.75814" stroke-linecap="round" stroke-linejoin="round"/>
<path d="M135.834 112.279C140.203 112.279 143.745 108.737 143.745 104.367C143.745 99.9977 140.203 96.4555 135.834 96.4555C131.464 96.4555 127.922 99.9977 127.922 104.367C127.922 108.737 131.464 112.279 135.834 112.279Z" stroke="#09090B" stroke-width="1.75814" stroke-linecap="round" stroke-linejoin="round"/>
<path d="M218.755 34.1705L209.886 36.0352C209.058 36.2092 208.353 35.4219 208.616 34.618L211.435 26.0049C211.699 25.201 212.733 24.9835 213.298 25.6133L219.347 32.3617C219.912 32.9916 219.583 33.9965 218.755 34.1705Z" fill="black" stroke="black" stroke-width="1.3186"/>
<path d="M390.506 187C431.822 164.583 460.8 89.2635 400.75 31.7286C361.91 -5.48413 270.208 -3.87377 217.464 29.5748" stroke="black" stroke-width="1.3186" stroke-linecap="round" stroke-dasharray="8.79 8.79"/>
<path d="M271.601 324.609L280.636 323.892C281.479 323.825 282.078 324.696 281.715 325.46L277.818 333.642C277.454 334.406 276.4 334.489 275.921 333.793L270.783 326.327C270.303 325.63 270.758 324.675 271.601 324.609Z" fill="black" stroke="black" stroke-width="1.3186"/>
<path d="M272.548 330.366C222.322 364.743 142.986 367.85 104.46 331.457C59.733 289.206 57.8622 227.811 79.6758 187.949" stroke="black" stroke-width="1.3186" stroke-linecap="round" stroke-dasharray="8.79 8.79"/>
<defs>
<linearGradient id="paint0_linear_0_1187" x1="386.368" y1="238.643" x2="392.542" y2="231.728" gradientUnits="userSpaceOnUse">
<stop stop-color="#FF414C"/>
<stop offset="1" stop-color="#FF414C" stop-opacity="0"/>
</linearGradient>
</defs>
</svg>
